<svg xmlns="http://www.w3.org/2000/svg" xmlns:xlink="http://www.w3.org/1999/xlink" width="500" zoomAndPan="magnify" viewBox="0 0 375 374.999991" height="500" preserveAspectRatio="xMidYMid meet" version="1.2"><defs/><g id="2af7352296"><g style="fill:#7e93ab;fill-opacity:1;"><g transform="translate(151.96943, 265.169863)"><path style="stroke:none" d="M 106.515625 2.53125 C 93.835938 2.53125 81.957031 0.164062 70.875 -4.5625 C 59.800781 -9.300781 50.125 -15.8125 41.84375 -24.09375 C 33.5625 -32.375 27.050781 -42.050781 22.3125 -53.125 C 17.582031 -64.207031 15.21875 -76.085938 15.21875 -88.765625 C 15.21875 -101.441406 17.582031 -113.316406 22.3125 -124.390625 C 27.050781 -135.460938 33.5625 -145.140625 41.84375 -153.421875 C 50.125 -161.710938 59.800781 -168.222656 70.875 -172.953125 C 81.957031 -177.691406 93.835938 -180.0625 106.515625 -180.0625 C 118.691406 -180.0625 129.257812 -178.113281 138.21875 -174.21875 C 147.175781 -170.332031 154.695312 -166.109375 160.78125 -161.546875 C 167.71875 -156.140625 173.722656 -150.054688 178.796875 -143.296875 L 166.109375 -131.875 C 162.054688 -137.625 157.15625 -142.695312 151.40625 -147.09375 C 146.5 -150.976562 140.328125 -154.484375 132.890625 -157.609375 C 125.453125 -160.742188 116.660156 -162.3125 106.515625 -162.3125 C 96.367188 -162.3125 86.898438 -160.453125 78.109375 -156.734375 C 69.316406 -153.015625 61.664062 -147.859375 55.15625 -141.265625 C 48.644531 -134.671875 43.53125 -126.890625 39.8125 -117.921875 C 36.09375 -108.960938 34.234375 -99.242188 34.234375 -88.765625 C 34.234375 -78.285156 36.09375 -68.5625 39.8125 -59.59375 C 43.53125 -50.632812 48.644531 -42.859375 55.15625 -36.265625 C 61.664062 -29.671875 69.316406 -24.515625 78.109375 -20.796875 C 86.898438 -17.078125 96.367188 -15.21875 106.515625 -15.21875 C 116.148438 -15.21875 124.429688 -16.441406 131.359375 -18.890625 C 138.296875 -21.347656 144.046875 -24.097656 148.609375 -27.140625 C 154.023438 -30.691406 158.59375 -34.75 162.3125 -39.3125 L 162.3125 -73.546875 L 121.734375 -73.546875 L 121.734375 -91.296875 L 181.328125 -91.296875 L 181.328125 -34.234375 C 175.921875 -27.304688 169.5 -21.132812 162.0625 -15.71875 C 155.632812 -11.15625 147.8125 -6.972656 138.59375 -3.171875 C 129.382812 0.628906 118.691406 2.53125 106.515625 2.53125 Z M 106.515625 2.53125 "/></g></g><g style="fill:#ffffff;fill-opacity:1;"><g transform="translate(79.697948, 265.169863)"><path style="stroke:none" d="M 45.65625 2.53125 C 38.550781 2.53125 32.378906 1.476562 27.140625 -0.625 C 21.898438 -2.738281 17.414062 -5.066406 13.6875 -7.609375 C 9.289062 -10.648438 5.570312 -14.03125 2.53125 -17.75 L 15.21875 -30.4375 C 17.25 -27.5625 19.785156 -25.023438 22.828125 -22.828125 C 25.359375 -20.960938 28.523438 -19.226562 32.328125 -17.625 C 36.140625 -16.019531 40.582031 -15.21875 45.65625 -15.21875 C 56.46875 -15.21875 65.085938 -18.472656 71.515625 -24.984375 C 77.941406 -31.492188 81.15625 -40.492188 81.15625 -51.984375 L 81.15625 -177.53125 L 100.171875 -177.53125 L 100.171875 -51.984375 C 100.171875 -44.035156 98.816406 -36.722656 96.109375 -30.046875 C 93.410156 -23.367188 89.648438 -17.617188 84.828125 -12.796875 C 80.015625 -7.984375 74.265625 -4.222656 67.578125 -1.515625 C 60.898438 1.179688 53.59375 2.53125 45.65625 2.53125 Z M 45.65625 2.53125 "/></g></g><g style="fill:#7e93ab;fill-opacity:1;"><g transform="translate(59.408673, 265.169863)"><path style="stroke:none" d="M 45.65625 2.53125 C 38.550781 2.53125 32.378906 1.476562 27.140625 -0.625 C 21.898438 -2.738281 17.414062 -5.066406 13.6875 -7.609375 C 9.289062 -10.648438 5.570312 -14.03125 2.53125 -17.75 L 15.21875 -30.4375 C 17.25 -27.5625 19.785156 -25.023438 22.828125 -22.828125 C 25.359375 -20.960938 28.523438 -19.226562 32.328125 -17.625 C 36.140625 -16.019531 40.582031 -15.21875 45.65625 -15.21875 C 56.46875 -15.21875 65.085938 -18.472656 71.515625 -24.984375 C 77.941406 -31.492188 81.15625 -40.492188 81.15625 -51.984375 L 81.15625 -177.53125 L 100.171875 -177.53125 L 100.171875 -51.984375 C 100.171875 -44.035156 98.816406 -36.722656 96.109375 -30.046875 C 93.410156 -23.367188 89.648438 -17.617188 84.828125 -12.796875 C 80.015625 -7.984375 74.265625 -4.222656 67.578125 -1.515625 C 60.898438 1.179688 53.59375 2.53125 45.65625 2.53125 Z M 45.65625 2.53125 "/></g></g></g></svg>